inDegrees=no
num_controls=7
num_derivatives=13
num_iterations=119
num_multipliers=7
num_parameters=0
num_slacks=7
num_states=26
objective=0.476977
objective_accelerations=0.044258
objective_balance=0.003625
objective_effort=0.040476
objective_height=0.382954
objective_ligament=0.005663
solver_duration=1623.519926
status=Solve_Succeeded
success=true
DataType=double
version=3
OpenSimVersion=4.5
endheader
time	/jointset/ground_pelvis/pelvis_tilt/value	/jointset/ground_pelvis/pelvis_tx/value	/jointset/ground_pelvis/pelvis_ty/value	/jointset/hip_l/hip_flexion_l/value	/jointset/hip_l/hip_adduction_l/value	/jointset/hip_l/hip_rotation_l/value	/jointset/back/lumbar_extension/value	/jointset/patellofemoral_l/patellar_flexion_l/value	/jointset/knee_l/knee_flexion_l/value	/jointset/knee_l/knee_adduction_l/value	/jointset/knee_l/knee_rotation_l/value	/jointset/ankle_l/ankle_angle_l/value	/jointset/subtalar_l/subtalar_angle_l/value	/jointset/ground_pelvis/pelvis_tilt/speed	/jointset/ground_pelvis/pelvis_tx/speed	/jointset/ground_pelvis/pelvis_ty/speed	/jointset/hip_l/hip_flexion_l/speed	/jointset/hip_l/hip_adduction_l/speed	/jointset/hip_l/hip_rotation_l/speed	/jointset/back/lumbar_extension/speed	/jointset/patellofemoral_l/patellar_flexion_l/speed	/jointset/knee_l/knee_flexion_l/speed	/jointset/knee_l/knee_adduction_l/speed	/jointset/knee_l/knee_rotation_l/speed	/jointset/ankle_l/ankle_angle_l/speed	/jointset/subtalar_l/subtalar_angle_l/speed	/forceset/tau_hip_flexion_l	/forceset/tau_hip_adduction_l	/forceset/tau_hip_rotation_l	/forceset/tau_knee_flexion_l	/forceset/tau_ankle_angle_l	/forceset/tau_subtalar_angle_l	/forceset/tau_lumbar_extension	lambda_cid13_p0	lambda_cid13_p1	lambda_cid13_p2	lambda_cid13_p3	lambda_cid13_p4	lambda_cid13_p5	lambda_cid14_p0	/jointset/ground_pelvis/pelvis_tilt/accel	/jointset/ground_pelvis/pelvis_tx/accel	/jointset/ground_pelvis/pelvis_ty/accel	/jointset/hip_l/hip_flexion_l/accel	/jointset/hip_l/hip_adduction_l/accel	/jointset/hip_l/hip_rotation_l/accel	/jointset/back/lumbar_extension/accel	/jointset/patellofemoral_l/patellar_flexion_l/accel	/jointset/knee_l/knee_flexion_l/accel	/jointset/knee_l/knee_adduction_l/accel	/jointset/knee_l/knee_rotation_l/accel	/jointset/ankle_l/ankle_angle_l/accel	/jointset/subtalar_l/subtalar_angle_l/accel	gamma_cid13_p0	gamma_cid13_p1	gamma_cid13_p2	gamma_cid13_p3	gamma_cid13_p4	gamma_cid13_p5	gamma_cid14_p0
1.5	0.01171684739076111	-0.01098834969000673	0.8528273739986054	0.6691721102933583	-0.3226009947204938	-0.1327495165666259	-0.7966959256561218	0.7781915652196201	0.7781915652191501	-0.1031638117887851	-0.1745284577802586	0.1549617265522381	0.02460319598615023	0.3125358350497466	0.2303634828793852	0.4208852360776207	-1.970451747186415	0.08485825787956482	-0.6429873053274343	0.8358978690028749	-1.994343716086442	-1.994343716086797	-0.1439646147715924	-0.0001358474230537158	-0.4583839768564202	-0.06378064139387306	-0.1942312614364297	0.0212931703751498	-0.005239778062574603	-0.2284556756793643	0.06501739041908557	0.0417127064646096	0.2773767373775827	-21.18746879946062	-16.78387509530032	4.937542516837775	-7.548520702351136	-669.3801761604967	-76.70300498925754	-15.26750732167402	-0.023291171663281	0.6441227124520819	-0.616590563661378	-0.6722531901896044	0.465632922380749	-0.346872489451642	1.961034412268212	-0.9968420526827064	-0.9968420526826819	-0.2794048703285032	0.0273098574406372	-0.2917945929802354	0.4425960498383139	3.127497848867713e-07	9.901546722777423e-07	-1.398112924048109e-06	-1.51172412040073e-08	3.915655627424578e-07	5.716016229588434e-07	2.870626940312495e-07
1.51	0.01484090227868594	-0.008652708174623307	0.8570045859417802	0.6494357070727168	-0.3217299281246137	-0.1391969612897259	-0.7882402122062071	0.7582005797532773	0.7582005797528314	-0.1046185246996935	-0.1745300340535841	0.1503637716651863	0.02398667035143668	0.3122346077890366	0.2367411738412985	0.4144722321778677	-1.976580069300774	0.08935225785980379	-0.6464094994545754	0.855141201918709	-2.003578961091846	-2.003578961091951	-0.1469946029655072	-0.0001581749581037947	-0.4611201518439229	-0.05950592660387299	-0.1872947910529064	0.02046991359951755	-0.005016087159042454	-0.2244559386408941	0.06546887427413341	0.04101548063508972	0.2705656437922399	-20.81928060899331	-16.59156929426344	4.959463335008891	-7.449765997504485	-665.0098493625912	-76.60899463823918	-15.98326502436529	-0.03961314089003617	0.6310735242064123	-0.6663329238438814	-0.5457902059825712	0.440751107453296	-0.3258533419671058	1.890439872044853	-0.8457485931511747	-0.8457485931138793	-0.3170503673938508	-0.01391836870735908	-0.2514472334528172	0.4225014654512135	2.257425194610507e-07	1.37696092809966e-06	-8.08012174225595e-07	8.788566360224357e-08	3.325717671468483e-07	5.95174615158707e-07	2.470325165112526e-07
1.52	0.01796072996648139	-0.006253993502391678	0.861115132321815	0.6296454869341476	-0.3208140280146088	-0.1456758200476217	-0.7795951739989733	0.738125465263146	0.7381254652627228	-0.1061039884072404	-0.1745312164642014	0.145741071371896	0.02341341031899722	0.3116903950237179	0.2429781142490265	0.4075521234496532	-1.981215130772075	0.09382496070435439	-0.6492701122865865	0.8737628204666972	-2.011169520844527	-2.011169520844384	-0.1501147740982565	-5.707488233557868e-05	-0.4633330581041267	-0.05512752093905839	-0.1803583206693823	0.01964665682388779	-0.004792396255546556	-0.220456201602422	0.06592035812918197	0.04031825480557237	0.2637545502068972	-20.45081487344228	-16.40101692855866	4.983611687717588	-7.386741313087086	-660.6649924076545	-76.55232458959425	-16.68832722425534	-0.07188827258502835	0.6159726016150198	-0.7180115293536858	-0.3736010615780387	0.4613734952430849	-0.2345562304256507	1.836691538699037	-0.6679050021381645	-0.6679050021381494	-0.2974414580954043	0.05199537960430749	-0.1871408475204483	0.4633342248012264	1.678466798285117e-07	1.679150073248485e-06	-4.089868127697385e-07	1.587852908664879e-07	3.036420639835322e-07	6.194063059269642e-07	2.232349067918756e-07
1.53	0.02107391289529321	-0.003793677620398781	0.8651540391032781	0.6098163173830914	-0.3198534373300629	-0.1521816779914864	-0.7707673599108802	0.7179826281935533	0.7179826281930176	-0.1076202520163507	-0.1745315686695368	0.1410988524838877	0.02288455611732126	0.3109011807733961	0.2490545056251026	0.4001517539471787	-1.984360859521366	0.09829073022372842	-0.6518432766813551	0.8916705114223789	-2.017117489992373	-2.017117489992456	-0.1531251982010091	-1.703192762067489e-05	-0.4650221568248812	-0.05062337052879329	-0.1730899409671176	0.01847758182993844	-0.004642488660149728	-0.2169871241194389	0.06681137986663127	0.0395856779633248	0.2566759673480703	-19.95794978621616	-16.21235603063162	5.002878853826071	-7.331162192760714	-656.5129890453218	-76.56994672464714	-17.38315870152278	-0.08919674439704467	0.5989319810823367	-0.7626098413239214	-0.2463777774234688	0.4385865876287237	-0.2597649325207721	1.748385014577565	-0.5162250443828282	-0.5162250444167759	-0.300604105717151	-0.02056961607349718	-0.146443456188221	0.4466421168082472	1.408817301012279e-07	1.89143353830715e-06	-2.129790514534531e-07	1.955751857423508e-07	3.066554590295277e-07	6.443378639241394e-07	2.166844003606571e-07
1.54	0.02417785193297386	-0.001273505909549452	0.8691166301535905	0.5899634267453785	-0.3188483073688543	-0.1587114812570024	-0.7617643534851152	0.6977887149978271	0.6977887149971769	-0.109166172110359	-0.1745316361192203	0.1364424127943049	0.02240128075328177	0.3098416167974218	0.2549492800203131	0.3922889772195229	-1.98595934810341	0.1027328160368688	-0.6540591766168559	0.9088012880010538	-2.02138474607122	-2.021384746071529	-0.15604607107784	-1.237520492456713e-07	-0.4661772184190462	-0.04601175341176437	-0.1658215612648535	0.01730850683598939	-0.004492581064754139	-0.213518046636455	0.0677024016040812	0.03885310112107803	0.2495973844892426	-19.46254789867086	-16.02544138989642	5.023911816723373	-7.313980629546704	-652.3533089910344	-76.6129815492644	-18.06878671812009	-0.1259582177155334	0.5796492054418741	-0.8104929743899197	-0.06415302812856076	0.4566367539963533	-0.1631033385720788	1.681308663297652	-0.3317623883383347	-0.3317623883383362	-0.2795312129110457	0.04736842377562415	-0.08033342220254897	0.4848275661539947	1.085758027663113e-07	2.03218105398789e-06	-4.769707259313111e-08	2.310761333510562e-07	2.832424278743215e-07	6.446652805385576e-07	2.078722319354926e-07
1.55	0.02726971038179206	0.00130460885233681	0.8729983059094815	0.5701027013469433	-0.317798777162054	-0.1652618645032085	-0.7525939813056609	0.677560863260485	0.6775608632604211	-0.110740447801322	-0.1745317620602142	0.1317771970727412	0.02196481983831614	0.3084866553564241	0.2606327285573724	0.3839756064127211	-1.985914389251836	0.1071684029082548	-0.6559414381732033	0.9251171396938472	-2.023890858739055	-2.02389085873943	-0.1587966367319609	-1.77148794317203e-05	-0.4667760725473917	-0.04126302589411646	-0.15846055534076	0.01620007568284802	-0.004413689539725617	-0.2101632039568186	0.06853994287936821	0.03792737220881597	0.2424060109712957	-19.00704828019783	-15.74021492199315	5.020773621410812	-7.163094935291529	-648.3716658402559	-76.49360107006773	-18.73826060037699	-0.1467923424036924	0.5566079058275197	-0.8523043739470517	0.07950415441167012	0.436013067986513	-0.1892121122094019	1.583322192883957	-0.1658623294771875	-0.1658623294870973	-0.2705957875884747	-0.02520449627202559	-0.03611937688655665	0.4721518287337703	7.011614036173136e-08	2.09050671495059e-06	8.218346126358308e-08	2.650919895432544e-07	2.293815578351239e-07	6.166444472989316e-07	1.964542355607817e-07
1.56	0.03034671376917828	0.003938341145191567	0.8767947389092802	0.5502505622995461	-0.3167050924036844	-0.1718287552745868	-0.7432651308551559	0.6573167850717706	0.6573167850722916	-0.1123417844580117	-0.1745318402355424	0.1271087012161468	0.02157629749535971	0.3068706045109537	0.2660727862140122	0.3752404260010518	-1.984242077895811	0.1115637263507124	-0.657360681651284	0.9404969422111913	-2.024630036345734	-2.024630036346176	-0.1614582642231164	9.429382111598907e-06	-0.4668332454251776	-0.0364240390099254	-0.1510995494166682	0.01509164452970605	-0.004334798014700564	-0.2068083612771824	0.06937748415465522	0.03700164329655325	0.2352146374533477	-18.55448425895434	-15.45543763988213	5.018807347864852	-7.02870104443222	-644.455824873539	-76.40014596141461	-19.38125357380612	-0.1781760986100511	0.5309710293579896	-0.8948548953634018	0.2613174727618555	0.4485840682106744	-0.07049972291873459	1.494098828207773	0.0216246238927747	0.02162462389277582	-0.2617435803179614	0.05631550156079035	0.02800282790936396	0.5028794394626265	5.645394106709149e-08	2.096769977120115e-06	9.38356475708939e-08	2.745399792073915e-07	2.105206881048181e-07	6.09856612899755e-07	1.945958529278791e-07
1.57	0.03340621408731759	0.006625185189570797	0.8805017923567521	0.5304233619215031	-0.3155677186187332	-0.1784070267732517	-0.7337873869372319	0.6370741880192925	0.637074188019746	-0.113969625667973	-0.1745310532159459	0.1224423322458727	0.02123654188160248	0.304983171581047	0.2712473025201584	0.3661079286110272	-1.980913128184989	0.1159034036447477	-0.6582042254350899	0.9548707582484919	-2.023583235799337	-2.023583235799489	-0.1640911156973204	0.0001658023967341781	-0.4663478483136156	-0.03151160924766225	-0.1434961926157654	0.01371833826274058	-0.004343461455426638	-0.2038731232076021	0.07059159561463385	0.03603407490054442	0.2278546874069341	-17.99954727168602	-15.16551343296118	5.010422288656791	-6.902294166743003	-640.7705570204773	-76.35422903700839	-19.99317988128564	-0.2009810070319068	0.5034321172707894	-0.9317474451852881	0.4114018562259744	0.4252792776525993	-0.07768414673420145	1.381860522732394	0.1920864231930054	0.1920864232365105	-0.26090022736834	-0.002066418925607036	0.0727714767370137	0.4874429719282152	7.378857065987645e-08	2.037955240798172e-06	-4.229760055854804e-08	2.532781357114523e-07	2.354098187606267e-07	6.296100270511399e-07	2.046869874722365e-07
